<?xml version="1.0" encoding="UTF-8" standalone="no"?>
<!-- Generator: Adobe Illustrator 19.0.0, SVG Export Plug-In . SVG Version: 6.00 Build 0)  -->
<svg xmlns:dc="http://purl.org/dc/elements/1.1/" xmlns:cc="http://creativecommons.org/ns#" xmlns:rdf="http://www.w3.org/1999/02/22-rdf-syntax-ns#" xmlns:svg="http://www.w3.org/2000/svg" xmlns="http://www.w3.org/2000/svg" xmlns:sodipodi="http://sodipodi.sourceforge.net/DTD/sodipodi-0.dtd" xmlns:inkscape="http://www.inkscape.org/namespaces/inkscape" version="1.1" id="Layer_1" x="0px" y="0px" viewBox="0 0 225.39999 54.900002" xml:space="preserve" sodipodi:docname="SelkirkLogo_00.svg" width="225.39999" height="54.900002" inkscape:version="0.92.1 r15371"><metadata id="metadata65"><rdf:RDF><cc:Work rdf:about=""><dc:format>image/svg+xml</dc:format><dc:type rdf:resource="http://purl.org/dc/dcmitype/StillImage"/><dc:title/></cc:Work></rdf:RDF></metadata><defs id="defs63"/><sodipodi:namedview pagecolor="#ffffff" bordercolor="#666666" borderopacity="1" objecttolerance="10" gridtolerance="10" guidetolerance="10" inkscape:pageopacity="0" inkscape:pageshadow="2" inkscape:window-width="1091" inkscape:window-height="813" id="namedview61" showgrid="false" fit-margin-top="0" fit-margin-left="0" fit-margin-right="0" fit-margin-bottom="0" inkscape:zoom="2" inkscape:cx="112.8" inkscape:cy="28.9" inkscape:window-x="2217" inkscape:window-y="137" inkscape:window-maximized="0" inkscape:current-layer="Layer_1"/><style type="text/css" id="style2">
	.st0{fill:#7A7866;}
	.st1{fill:#F1B600;}
	.st2{fill:#990A2C;}
	.st3{fill:#FFFFFF;}
</style><g id="g58" transform="translate(-193.2,-370)"><g id="g32"><path class="st0" d="m 194.4,399.4 c 1,0.8 2.9,1.6 4.7,1.6 2.3,0 3.9,-0.9 3.9,-2.6 0,-1.6 -0.9,-2.7 -3.4,-3.6 -3.2,-1.1 -5.7,-2.6 -5.7,-5.5 0,-3.1 2.6,-5.5 6.7,-5.5 2,0 3.7,0.8 4.6,1.3 l -1,2.5 c -0.6,-0.4 -1.9,-1.2 -3.7,-1.2 -2.4,0 -3.4,1.4 -3.4,2.6 0,1.9 1.6,2.3 4.2,3.3 3.3,1.3 4.8,3.1 4.8,5.9 0,3 -2.5,5.6 -7.3,5.6 -2,0 -4.5,-1 -5.6,-1.7 l 1.2,-2.7 z" id="path4" inkscape:connector-curvature="0" style="fill:#7a7866"/><path class="st0" d="m 211.3,397.4 c 0.1,2.8 2.1,4 4.4,4 1.7,0 2.8,-0.3 3.8,-0.7 l 0.5,2.2 c -1.1,0.5 -2.7,0.9 -4.8,0.9 -4.4,0 -7,-2.8 -7,-7 0,-3.9 2.4,-7.4 6.7,-7.4 4.5,0 5.9,3.8 5.9,6.6 0,0.6 0,1.1 -0.1,1.4 h -9.4 z m 6.5,-2.3 c 0,-1.4 -0.6,-3.6 -3.1,-3.6 -2.3,0 -3.2,2.1 -3.4,3.6 h 6.5 z" id="path6" inkscape:connector-curvature="0" style="fill:#7a7866"/><polygon class="st0" points="226.9,403.5 223.8,403.5 223.8,383.3 226.9,383.3 " id="polygon8" style="fill:#7a7866"/><path class="st0" d="m 233.9,395.8 v 0 c 0.4,-0.5 0.8,-1.1 1.2,-1.6 l 3.6,-4.5 h 3.8 l -5.2,5.6 5.9,8.2 h -3.9 l -4.2,-6.3 -1.2,1.4 v 4.9 h -3.2 v -20.2 h 3.2 z" id="path10" inkscape:connector-curvature="0" style="fill:#7a7866"/><path class="st0" d="m 245.6,403.5 v -13.8 h 3.2 v 13.8 z m 1.5,-16.1 c -1.1,0 -1.9,-0.8 -1.9,-1.9 0,-1 0.8,-1.9 1.9,-1.9 1.2,0 1.9,0.8 1.9,1.9 0,1.1 -0.7,1.9 -1.9,1.9 v 0 z" id="path12" inkscape:connector-curvature="0" style="fill:#7a7866"/><path class="st0" d="m 252.5,394.1 c 0,-1.8 0,-3.1 -0.1,-4.4 h 2.7 l 0.1,2.7 h 0.1 c 0.7,-1.9 2.2,-3 3.8,-3 0.3,0 0.5,0 0.8,0.1 v 3 c -0.3,-0.1 -0.6,-0.1 -1,-0.1 -1.7,0 -2.9,1.1 -3.2,2.8 -0.1,0.3 -0.1,0.7 -0.1,1.1 v 7.2 h -3.2 l 0.1,-9.4 z" id="path14" inkscape:connector-curvature="0" style="fill:#7a7866"/><path class="st0" d="m 265.7,395.8 v 0 c 0.4,-0.5 0.8,-1.1 1.2,-1.6 l 3.6,-4.5 h 3.8 l -5.2,5.6 5.9,8.2 h -3.9 l -4.2,-6.3 -1.2,1.4 v 4.9 h -3.2 v -20.2 h 3.2 z" id="path16" inkscape:connector-curvature="0" style="fill:#7a7866"/><path class="st0" d="m 346,402.7 c -0.8,0.5 -3,1.1 -5.4,1.1 -5.8,0 -9.7,-3.7 -9.7,-9.7 0,-6.2 4.3,-10.1 10.2,-10.1 2.3,0 4.5,0.8 5.1,1.2 l -1,2.5 c -0.9,-0.5 -2.5,-1 -4,-1 -4.1,0 -7,2.6 -7,7.3 0,4.4 2.5,7.2 6.9,7.2 1.5,0 3.1,-0.3 4,-0.8 l 0.9,2.3 z" id="path18" inkscape:connector-curvature="0" style="fill:#7a7866"/><path class="st0" d="m 354,403.8 c -3.8,0 -6.8,-2.7 -6.8,-7.1 0,-4.6 3,-7.3 7,-7.3 4.1,0 6.8,2.9 6.8,7.1 0,5 -3.6,7.3 -7,7.3 v 0 z m 0.1,-2.3 c 2.1,0 3.7,-2 3.7,-4.9 0,-2.2 -1,-4.9 -3.6,-4.9 -2.6,0 -3.7,2.5 -3.7,4.9 -0.1,2.8 1.3,4.9 3.6,4.9 v 0 z" id="path20" inkscape:connector-curvature="0" style="fill:#7a7866"/><polygon class="st0" points="366.9,403.5 363.8,403.5 363.8,383.3 366.9,383.3 " id="polygon22" style="fill:#7a7866"/><polygon class="st0" points="373.9,403.5 370.8,403.5 370.8,383.3 373.9,383.3 " id="polygon24" style="fill:#7a7866"/><path class="st0" d="m 379.7,397.4 c 0.1,2.8 2.1,4 4.4,4 1.7,0 2.8,-0.3 3.8,-0.7 l 0.5,2.2 c -1.1,0.5 -2.7,0.9 -4.8,0.9 -4.4,0 -7,-2.8 -7,-7 0,-3.9 2.4,-7.4 6.7,-7.4 4.5,0 5.9,3.8 5.9,6.6 0,0.6 0,1.1 -0.1,1.4 h -9.4 z m 6.5,-2.3 c 0,-1.4 -0.6,-3.6 -3.1,-3.6 -2.3,0 -3.2,2.1 -3.4,3.6 h 6.5 z" id="path26" inkscape:connector-curvature="0" style="fill:#7a7866"/><path class="st0" d="m 409.1,397.4 c 0.1,2.8 2.1,4 4.4,4 1.7,0 2.8,-0.3 3.8,-0.7 l 0.5,2.2 c -1.1,0.5 -2.7,0.9 -4.8,0.9 -4.4,0 -7,-2.8 -7,-7 0,-3.9 2.4,-7.4 6.7,-7.4 4.5,0 5.9,3.8 5.9,6.6 0,0.6 0,1.1 -0.1,1.4 h -9.4 z m 6.5,-2.3 c 0,-1.4 -0.6,-3.6 -3.1,-3.6 -2.3,0 -3.2,2.1 -3.4,3.6 h 6.5 z" id="path28" inkscape:connector-curvature="0" style="fill:#7a7866"/><path class="st0" d="m 403.5,402.6 c -1.6,-1 -4.3,-1.4 -5.3,-1.4 -0.9,0 -2.1,-0.1 -2.1,-0.1 -0.5,-0.1 -0.8,-0.3 -0.8,-0.7 -0.1,-0.4 0.2,-0.9 0.7,-1.2 0.2,0 0.9,0.1 1.5,0.1 h 0.2 c 4.4,-0.1 5.7,-3.3 5.7,-4.5 0,-0.6 -0.1,-1.9 -0.7,-2.7 -0.1,-0.1 -0.1,-0.2 -0.1,-0.3 0,-0.1 0.2,-0.1 0.3,-0.1 h 2 v -2.2 h -0.2 c 0,0 -3.2,0 -7.3,0 -4.3,0 -5.9,3.1 -5.9,5.1 0,1.4 0.5,2.7 1.5,3.5 0.2,0.2 0.5,0.4 0.7,0.5 -0.2,0.2 -0.5,0.6 -0.8,0.9 -0.9,1.2 -0.6,2.2 0.1,2.7 0.3,0.3 0.5,0.4 0.7,0.5 -0.7,0.5 -2.6,2 -2.6,3.9 0,0.8 0.3,1.5 0.9,2.1 1.4,1.4 4,1.8 5.3,1.8 2,0 4.1,-0.2 6.1,-1.6 1.2,-0.8 1.8,-2 1.8,-3.2 0,-1.2 -0.6,-2.4 -1.7,-3.1 z m -9,-8 c 0,-1.5 1.5,-2.8 3.2,-2.8 1.7,0 3,1.3 3,2.9 0,1.6 -1.7,2.6 -3.3,2.6 -1.8,-0.1 -2.9,-1.1 -2.9,-2.7 z m 3.3,13.4 c -1.8,0 -3.7,-0.7 -3.7,-1.7 0,-1.2 1.5,-2.4 1.8,-2.6 0.2,0 0.4,0 0.7,0 2.1,0 5.7,0.4 5.7,2 0.1,2.3 -4.4,2.3 -4.5,2.3 z" id="path30" inkscape:connector-curvature="0" style="fill:#7a7866"/></g><path class="st1" d="m 325,371.7 -0.2,-1.7 -1.6,0.5 c -10.9,3.3 -19.6,0.1 -19.7,0 l -0.3,-0.1 c 0,0 -0.5,0 -0.5,0 0,0 -0.3,0.1 -0.3,0.1 -0.1,0 -8.8,3.3 -19.7,0 l -1.6,-0.5 -0.2,1.9 c -0.1,0.4 -1.3,8.8 0.6,20.8 2.6,16 9.7,27.1 20.7,32.1 l 0.3,0.1 h 0.3 0.2 0.3 l 0.3,-0.1 c 11,-5 18.2,-16.1 20.7,-32.1 2,-11.9 0.7,-20.5 0.7,-21 z" id="path34" inkscape:connector-curvature="0" style="fill:#f1b600"/><path class="st2" d="m 303,373.2 c -2,0.7 -9.7,2.8 -19.5,0.3 -0.6,7.7 -2.2,38.2 19.5,48.3 21.5,-10.2 20.1,-40.6 19.5,-48.3 -9.8,2.5 -17.5,0.3 -19.5,-0.3 z" id="path36" inkscape:connector-curvature="0" style="fill:#990a2c"/><g id="g46"><path class="st1" d="m 291.4,392.5 v 7.2 c 0,0 0.3,2.2 2.4,2.2 h 3.5 z m 0.7,7.7 v -5.7 l 0.9,6.8 c -0.5,-0.2 -0.9,-1.1 -0.9,-1.1 z" id="path38" inkscape:connector-curvature="0" style="fill:#f1b600"/><path class="st1" d="m 308.6,402 h 3.5 c 2.1,0 2.4,-2.2 2.4,-2.2 v -7.2 z m 5.2,-6 -3.1,5 H 310 l 3.8,-6.1 z" id="path40" inkscape:connector-curvature="0" style="fill:#f1b600"/><polygon class="st1" points="306.9,380.2 303.4,376.9 299.2,380.8 297.1,378.9 294.6,381.6 295.3,381.6 297,379.6 296,381.6 299,381.6 296.5,383.4 296.6,385 300,381.1 303.2,377.9 300.4,381.6 301.6,381.6 296.9,385.7 297.9,387.3 302.4,381.6 305.1,381.6 298.2,387.7 299.6,389.9 305.5,381.6 306.4,381.6 308.8,379.4 307.1,381.6 308.2,381.6 299.9,390.3 301.3,392.4 308.4,381.6 310.8,381.6 301.6,392.9 302.9,394.9 310.8,381.6 311.7,381.6 308.8,378.8 " id="polygon42" style="fill:#f1b600"/><path class="st1" d="m 310.1,383.6 c 0.4,1.4 -0.4,2.4 -0.4,2.4 L 303,396.1 296.3,386 c 0,0 -0.8,-1 -0.4,-2.4 0,0 -6.3,1.5 -3.9,6.4 l 5.4,8.5 c 0,0 1.6,1.7 1.2,3.7 0,0 3.1,0.3 4.4,-2.1 1.3,2.3 4.4,2.1 4.4,2.1 -0.4,-1.9 1.2,-3.7 1.2,-3.7 L 314,390 c 2.4,-4.9 -3.9,-6.4 -3.9,-6.4 z m -10.8,17.9 c 0.2,-0.8 -0.6,-2.2 -0.6,-2.2 l -6.4,-10.4 8.7,11.6 c -0.5,0.8 -1.7,1 -1.7,1 z m 4.9,-3.3 -0.9,-1.5 7.7,-11.5 z" id="path44" inkscape:connector-curvature="0" style="fill:#f1b600"/></g><path class="st1" d="m 285.8,408.7 c -0.6,0.4 -1.6,0.9 -1.2,2.1 l -4.5,1.5 2.9,3.6 -0.1,4.7 c 0,0 5.3,-0.8 7.2,-2.9 0.4,-0.4 0.4,-1.2 0.3,-1.3 -0.1,-0.3 0.5,-0.5 0.7,-0.6 2.2,-0.8 6.3,-2 11.8,-2 5.5,0 9.6,1.2 11.8,2 0.2,0.1 0.8,0.1 0.7,0.4 0,0.1 0,1.1 0.4,1.5 1.9,2.1 7.5,2.6 7.5,2.6 l -0.1,-4.5 2.8,-3.2 -4.4,-1.8 c 0.4,-1.2 -0.6,-1.7 -1.3,-2.1 -4.1,-2.5 -12.5,-3.7 -17.2,-3.7 -4.8,0.1 -13.2,1.3 -17.3,3.7 z" id="path48" inkscape:connector-curvature="0" style="fill:#f1b600"/><path class="st3" d="m 317.8,414.4 c 1,0.5 1.4,-0.2 1.4,-0.2 0.4,-0.7 1,-2.5 1,-2.5 0.2,-0.6 0.4,-1.1 -0.8,-1.7 -2,-1.1 -8,-3.5 -16.4,-3.5 -8.4,0 -14.4,2.4 -16.4,3.5 -1.2,0.6 -1,1.1 -0.8,1.7 0,0 0.7,1.7 1,2.5 0,0 0.4,0.7 1.4,0.2 0,0 6.7,-2.7 14.8,-2.7 8.1,0 14.8,2.7 14.8,2.7 z" id="path50" inkscape:connector-curvature="0" style="fill:#ffffff"/><path class="st3" d="m 323.5,413.4 -2.6,-1 c 0,0 -1,3.3 -2.1,3.3 0,0 -2,0 -1.5,0.9 0.6,1.1 3.1,1.6 4.5,2 v -3 z" id="path52" inkscape:connector-curvature="0" style="fill:#ffffff"/><path class="st3" d="m 282.5,413.4 2.6,-1 c 0,0 1,3.3 2.1,3.3 0,0 2,0 1.5,0.9 -0.6,1.1 -3.1,1.6 -4.5,2 v -3 z" id="path54" inkscape:connector-curvature="0" style="fill:#ffffff"/><path class="st2" d="m 290,412 c 0.1,0 0.2,0 0.4,-0.1 0.3,-0.1 0.5,-0.2 0.6,-0.4 0.1,-0.1 0.1,-0.3 0.1,-0.4 -0.1,-0.2 -0.3,-0.3 -0.5,-0.3 v 0 c 0.2,-0.1 0.2,-0.3 0.2,-0.5 0,-0.2 -0.1,-0.2 -0.3,-0.3 -0.1,0 -0.3,0 -0.5,0 -0.2,0.1 -0.4,0.1 -0.5,0.2 z m -0.2,-1.5 c 0,0 0.1,0 0.2,-0.1 0.2,-0.1 0.3,0 0.4,0.1 0,0.1 0,0.3 -0.3,0.4 h -0.2 z m 0.2,0.7 h 0.2 c 0.2,-0.1 0.4,0 0.5,0.2 0.1,0.2 -0.1,0.3 -0.3,0.4 -0.1,0 -0.1,0 -0.2,0 z m 2.2,-0.9 -0.7,0.2 -0.1,-0.5 0.7,-0.2 -0.1,-0.3 -1,0.3 0.4,1.8 1.1,-0.3 -0.1,-0.3 -0.7,0.2 -0.1,-0.5 0.7,-0.2 z m 0.6,0.9 c 0.1,0 0.3,0 0.5,0 0.5,-0.1 0.6,-0.4 0.5,-0.7 -0.1,-0.3 -0.2,-0.4 -0.6,-0.4 -0.3,0 -0.4,-0.1 -0.4,-0.2 0,-0.1 0,-0.2 0.2,-0.3 0.2,0 0.3,0 0.4,0 v -0.3 c -0.1,0 -0.3,0 -0.4,0 -0.4,0.1 -0.6,0.4 -0.5,0.6 0.1,0.3 0.3,0.4 0.6,0.4 0.2,0 0.3,0.1 0.4,0.2 0,0.1 -0.1,0.3 -0.3,0.3 -0.2,0 -0.3,0 -0.5,0 z m 1.8,-0.3 0.3,-0.1 -0.3,-1.5 0.5,-0.1 -0.1,-0.3 -1.3,0.3 0.1,0.3 0.5,-0.1 z m 2,-2.3 c -0.5,0.1 -0.8,0.5 -0.7,1.1 0.1,0.5 0.5,0.9 1,0.8 0.5,-0.1 0.8,-0.5 0.7,-1.1 -0.1,-0.5 -0.4,-0.8 -1,-0.8 z m 0.1,0.3 c 0.3,0 0.5,0.2 0.6,0.6 0.1,0.4 -0.1,0.7 -0.4,0.7 -0.3,0 -0.5,-0.2 -0.6,-0.6 -0.1,-0.3 0,-0.6 0.4,-0.7 z m 1.4,1.4 h 0.3 l -0.1,-0.8 0.7,-0.1 v -0.3 l -0.7,0.1 -0.1,-0.5 0.7,-0.1 v -0.3 l -1,0.1 z m 2.7,-0.8 0.2,0.5 h 0.4 l -0.7,-1.8 h -0.4 l -0.5,1.8 h 0.3 l 0.1,-0.5 z m -0.5,-0.2 0.1,-0.5 c 0,-0.1 0,-0.2 0.1,-0.3 v 0 c 0,0.1 0.1,0.2 0.1,0.3 l 0.2,0.4 z m 1.4,0.7 h 1.1 v -0.3 h -0.7 v -1.5 h -0.3 z m 1.3,0 h 1.1 v -0.3 h -0.7 v -1.5 h -0.3 z m 1.6,-1 v 0.2 l 1.2,0.1 v -0.2 z m 2.1,-0.6 -0.2,1.8 h 0.3 l 0.2,-1.8 z m 0.9,1.9 0.1,-0.6 c 0,-0.3 0.1,-0.5 0.1,-0.8 v 0 c 0.1,0.2 0.2,0.4 0.2,0.7 l 0.4,0.9 h 0.3 l 0.2,-1.8 h -0.3 l -0.1,0.6 c 0,0.3 -0.1,0.5 -0.1,0.7 v 0 c -0.1,-0.2 -0.1,-0.4 -0.2,-0.6 l -0.4,-0.8 h -0.4 l -0.2,1.8 z m 3.1,0.5 c -0.1,-0.1 -0.3,-0.1 -0.5,-0.2 v 0 c 0.3,-0.1 0.5,-0.3 0.6,-0.7 0.1,-0.5 -0.2,-1 -0.7,-1 -0.5,-0.1 -0.9,0.2 -1,0.8 -0.1,0.6 0.2,0.9 0.6,1 0,0 0.1,0 0.1,0 0.2,0.1 0.4,0.2 0.7,0.3 z m -0.8,-0.4 c -0.3,-0.1 -0.4,-0.4 -0.4,-0.7 0.1,-0.4 0.3,-0.6 0.6,-0.6 0.3,0.1 0.4,0.4 0.4,0.7 -0.1,0.4 -0.3,0.6 -0.6,0.6 z m 1.5,-1.4 -0.2,1 c -0.1,0.6 0.1,0.8 0.5,0.9 0.4,0.1 0.8,-0.1 0.9,-0.6 l 0.2,-1 -0.3,-0.1 -0.2,1 c -0.1,0.3 -0.2,0.5 -0.5,0.4 -0.2,0 -0.3,-0.2 -0.3,-0.6 l 0.2,-1 z m 1.8,0.4 -0.4,1.8 0.3,0.1 0.4,-1.8 z m 0.3,2 0.3,0.1 0.2,-0.7 h 0.2 c 0.2,0.1 0.2,0.1 0.2,0.4 0,0.2 0,0.4 0,0.4 l 0.3,0.1 c 0,-0.1 0,-0.3 0,-0.5 0,-0.2 0,-0.3 -0.2,-0.4 v 0 c 0.2,0 0.4,-0.1 0.4,-0.4 0,-0.2 0,-0.3 -0.1,-0.4 -0.1,-0.1 -0.3,-0.2 -0.5,-0.3 -0.2,-0.1 -0.4,-0.1 -0.5,-0.1 z m 0.8,-1.4 c 0,0 0.1,0 0.2,0 0.2,0.1 0.3,0.2 0.3,0.4 0,0.2 -0.2,0.3 -0.4,0.2 l -0.2,-0.1 z m 2.1,1.1 -0.7,-0.2 0.1,-0.4 0.7,0.2 0.1,-0.3 -1,-0.3 -0.5,1.7 1,0.3 0.1,-0.3 -0.7,-0.2 0.1,-0.5 0.7,0.2 z" id="path56" inkscape:connector-curvature="0" style="fill:#990a2c"/></g></svg>
